<svg width="11" height="18" viewBox="0 0 11 18" fill="none" xmlns="http://www.w3.org/2000/svg">
<path d="M10.3887 3H7.38867C6.83637 3 6.38867 3.44772 6.38867 4V7H10.3887C10.5024 6.99748 10.6103 7.0504 10.6779 7.1419C10.7455 7.2334 10.7645 7.352 10.7287 7.46L9.98867 9.66C9.92047 9.8619 9.73177 9.9984 9.51867 10H6.38867V17.5C6.38867 17.7761 6.16477 18 5.88867 18H3.38867C3.11253 18 2.88867 17.7761 2.88867 17.5V10H1.38867C1.11253 10 0.888672 9.7761 0.888672 9.5V7.5C0.888672 7.2239 1.11253 7 1.38867 7H2.88867V4C2.88867 1.79086 4.67957 0 6.88867 0H10.3887C10.6648 0 10.8887 0.22386 10.8887 0.5V2.5C10.8887 2.77614 10.6648 3 10.3887 3Z" fill="white"/>
</svg>
