<svg width="19" height="18" viewBox="0 0 19 18" fill="none" xmlns="http://www.w3.org/2000/svg">
<path fill-rule="evenodd" clip-rule="evenodd" d="M13.8887 0H5.88867C3.12725 0 0.888672 2.23858 0.888672 5V13C0.888672 15.7614 3.12725 18 5.88867 18H13.8887C16.6501 18 18.8887 15.7614 18.8887 13V5C18.8887 2.23858 16.6501 0 13.8887 0ZM17.1387 13C17.1332 14.7926 15.6813 16.2445 13.8887 16.25H5.88867C4.09602 16.2445 2.64416 14.7926 2.63867 13V5C2.64416 3.20735 4.09602 1.75549 5.88867 1.75H13.8887C15.6813 1.75549 17.1332 3.20735 17.1387 5V13ZM14.6387 5.25C15.191 5.25 15.6387 4.80228 15.6387 4.25C15.6387 3.69772 15.191 3.25 14.6387 3.25C14.0864 3.25 13.6387 3.69772 13.6387 4.25C13.6387 4.80228 14.0864 5.25 14.6387 5.25ZM9.88867 4.5C7.40339 4.5 5.38867 6.51472 5.38867 9C5.38867 11.4853 7.40339 13.5 9.88867 13.5C12.374 13.5 14.3887 11.4853 14.3887 9C14.3914 7.8057 13.9181 6.65957 13.0736 5.81508C12.2291 4.97059 11.083 4.49734 9.88867 4.5ZM7.13867 9C7.13867 10.5188 8.36987 11.75 9.88867 11.75C11.4075 11.75 12.6387 10.5188 12.6387 9C12.6387 7.4812 11.4075 6.25 9.88867 6.25C8.36987 6.25 7.13867 7.4812 7.13867 9Z" fill="white"/>
</svg>
