<svg width="19" height="16" viewBox="0 0 19 16" fill="none" xmlns="http://www.w3.org/2000/svg">
<path d="M18.8614 2.7174C18.397 3.33692 17.8356 3.87733 17.1989 4.31776C17.1989 4.47959 17.1989 4.64142 17.1989 4.81225C17.204 7.7511 16.0301 10.5691 13.9404 12.6345C11.8506 14.6999 9.01975 15.8399 6.0826 15.7989C4.38454 15.8046 2.70822 15.4169 1.18497 14.6661C1.10283 14.6302 1.04986 14.549 1.05017 14.4593V14.3604C1.05017 14.2313 1.15478 14.1267 1.28382 14.1267C2.95297 14.0716 4.56257 13.4929 5.88489 12.4724C4.37408 12.4419 3.01474 11.5469 2.38915 10.1707C2.35756 10.0956 2.36739 10.0093 2.41512 9.9432C2.46284 9.8771 2.54155 9.8407 2.6228 9.8471C3.08197 9.8932 3.54573 9.8505 3.98875 9.7212C2.32094 9.375 1.06776 7.9904 0.888412 6.2957C0.882042 6.2144 0.918472 6.1357 0.984552 6.0879C1.05062 6.0402 1.13679 6.0303 1.21193 6.062C1.65949 6.2595 2.14264 6.3635 2.63179 6.3676C1.17039 5.40846 0.539162 3.58405 1.0951 1.92622C1.15249 1.76513 1.29036 1.64612 1.45805 1.61294C1.62573 1.57975 1.79851 1.63728 1.91287 1.76439C3.88494 3.86325 6.59459 5.11396 9.47045 5.25279C9.39685 4.95885 9.36065 4.65676 9.36265 4.35372C9.38955 2.76472 10.3728 1.34921 11.852 0.769872C13.3311 0.190542 15.0135 0.562032 16.1116 1.71044C16.86 1.56785 17.5836 1.31645 18.2593 0.964212C18.3088 0.933312 18.3716 0.933312 18.4211 0.964212C18.452 1.01373 18.452 1.07652 18.4211 1.12604C18.0938 1.87552 17.5409 2.50412 16.8395 2.92419C17.4537 2.85296 18.0571 2.70807 18.6368 2.49264C18.6856 2.45942 18.7497 2.45942 18.7985 2.49264C18.8394 2.51134 18.87 2.54711 18.8821 2.59042C18.8942 2.63373 18.8866 2.68018 18.8614 2.7174Z" fill="white"/>
</svg>
