<svg width="131" height="36" viewBox="0 0 131 36" fill="none" xmlns="http://www.w3.org/2000/svg">
<path d="M12.9072 0.950896C12.0837 0.733559 11.2373 0.627737 10.3885 0.635966C9.09054 0.607163 7.80117 0.864514 6.60287 1.39157C5.40458 1.91862 4.32375 2.70377 3.42954 3.69677C2.49291 4.63716 1.74956 5.77068 1.24568 7.02694C0.741786 8.2832 0.48812 9.63535 0.500427 10.9994V23.902H2.92581V10.9994C2.89286 9.95105 3.07408 8.90748 3.45715 7.93954C3.84022 6.97159 4.41618 6.10193 5.14595 5.38957C5.82395 4.64131 6.63515 4.04146 7.53313 3.62433C8.43111 3.2072 9.39824 2.98098 10.3792 2.95864C11.1673 2.99551 11.9478 3.13771 12.7019 3.38183L13.2057 3.59835V1.05916L12.9072 0.950896Z" fill="#32C0CC"/>
<path d="M49.008 1.52051V14.0984C49.0222 15.1441 48.8325 16.1817 48.4506 17.1467C48.0686 18.1118 47.5027 18.9837 46.7879 19.7082C46.0991 20.4663 45.2679 21.0645 44.3475 21.4644C43.4271 21.8644 42.4378 22.0573 41.4427 22.0309C40.6546 21.994 39.8741 21.8518 39.1199 21.6077L38.6162 21.5093V24.0484L38.9147 24.1469C39.739 24.3594 40.5848 24.4651 41.4334 24.4618H41.5826C42.8677 24.4554 44.139 24.1819 45.3238 23.6571C46.5087 23.1323 47.584 22.3664 48.4884 21.4032C49.3927 20.4399 50.1084 19.2982 50.5945 18.0431C51.0806 16.7881 51.3276 15.4443 51.3215 14.0885V1.52051H49.008Z" fill="#32C0CC"/>
<path d="M72.4314 1.52051V14.4231C72.445 15.4688 72.255 16.5062 71.8731 17.4712C71.4912 18.4361 70.9256 19.3081 70.2112 20.033C69.52 20.7877 68.6884 21.3836 67.7686 21.7833C66.8488 22.183 65.8606 22.3779 64.8661 22.3557C63.8723 22.372 62.8857 22.1745 61.9667 21.7752C61.0477 21.3758 60.2155 20.783 59.5209 20.033C58.7911 19.3206 58.2152 18.451 57.8321 17.483C57.449 16.5151 57.2678 15.4715 57.3007 14.4231V1.52051H54.978V14.4231C54.9656 15.8018 55.2188 17.1687 55.7223 18.441C56.2258 19.7132 56.9691 20.8642 57.9071 21.8242C58.835 22.8 59.9365 23.5728 61.1484 24.098C62.3602 24.6233 63.6585 24.8908 64.9687 24.885C66.2509 24.9096 67.5238 24.6499 68.7049 24.1226C69.8859 23.5954 70.9489 22.8123 71.825 21.8242C72.7523 20.8558 73.4886 19.7031 73.9914 18.4328C74.4941 17.1625 74.7534 15.7997 74.7541 14.4231V1.52051H72.4314Z" fill="#32C0CC"/>
<path d="M88.9699 27.6074C87.7572 29.4085 85.8449 32.6858 86.7591 34.1621C86.9244 34.4658 87.1449 34.7322 87.4078 34.9461C87.6708 35.1599 87.9711 35.317 88.2916 35.4084C88.6121 35.4998 88.9465 35.5237 89.2758 35.4787C89.6051 35.4337 89.9227 35.3208 90.2106 35.1463C90.6174 34.9206 90.9566 34.5798 91.19 34.1621C92.1042 32.6858 90.2852 29.3002 88.9699 27.6074Z" fill="#32C0CC"/>
<path d="M98.2519 1.28125L91.8246 14.1052L85.444 1.48793H82.8228L90.4907 16.7723L91.806 19.4197L100.873 1.28125H98.2519Z" fill="#32C0CC"/>
<path d="M88.7754 19.2314L79.7922 1.27002H77.1709L88.9806 25.0676L90.3892 22.3217L88.7754 19.2314Z" fill="#32C0CC"/>
<path d="M34.1942 16.8211C33.5239 18.3831 32.4384 19.7062 31.0693 20.6299C29.5726 21.6731 27.8163 22.2246 26.0226 22.2145C24.865 22.2446 23.7136 22.0254 22.639 21.5702C21.5644 21.115 20.589 20.4334 19.7726 19.567C18.1819 17.9809 17.1881 15.8419 16.9741 13.5438H37.5525V12.5596C37.5604 12.1697 37.526 11.78 37.4499 11.3983C37.2077 8.46308 35.9091 5.73719 33.8211 3.78072C31.7108 1.71418 28.9297 0.579976 26.0506 0.611652C24.5286 0.592815 23.0189 0.901668 21.6139 1.51932C20.2088 2.13697 18.938 3.05044 17.8789 4.20391C16.7972 5.31405 15.9433 6.64701 15.3704 8.11998C14.7975 9.59295 14.5178 11.1745 14.5487 12.7663C14.5438 14.3603 14.8368 15.9396 15.411 17.4139C15.9852 18.8883 16.8293 20.2287 17.895 21.3586C18.9607 22.4884 20.2271 23.3855 21.6217 23.9984C23.0163 24.6114 24.5118 24.9282 26.0226 24.9308C28.408 24.9487 30.7383 24.1739 32.6831 22.7164C34.5485 21.3105 35.9847 19.3609 36.8155 17.1065L34.1942 16.8211ZM19.8659 5.50304C21.5406 3.87927 23.7489 3.00736 26.0226 3.07211C28.2889 3.05273 30.4819 3.91861 32.1793 5.50304C33.7621 6.98273 34.7993 9.00411 35.1084 11.2113H16.9461C17.2558 9.00653 18.2891 6.98637 19.8659 5.50304Z" fill="#32C0CC"/>
<path d="M120.837 16.8205C120.164 18.3838 119.075 19.707 117.703 20.6293C116.21 21.6723 114.456 22.2238 112.666 22.2139C111.507 22.2431 110.354 22.0235 109.278 21.5684C108.202 21.1133 107.225 20.4321 106.406 19.5664C104.819 17.9777 103.826 15.84 103.608 13.5432H124.195V12.559C124.199 12.1692 124.164 11.7801 124.093 11.3977C123.849 8.43196 122.553 5.67262 120.464 3.67187C118.268 1.55942 115.383 0.424009 112.412 0.502873C109.441 0.581737 106.614 1.86877 104.522 4.09506C103.438 5.20376 102.583 6.53646 102.01 8.00977C101.437 9.48309 101.158 11.0653 101.192 12.6575C101.188 14.251 101.482 15.8298 102.056 17.3036C102.631 18.7773 103.475 20.1173 104.541 21.2468C105.606 22.3764 106.872 23.2735 108.266 23.8869C109.66 24.5004 111.155 24.8181 112.666 24.822C115.051 24.8316 117.38 24.0539 119.326 22.5977C121.191 21.1918 122.628 19.2422 123.458 16.9879L120.837 16.8205ZM106.406 5.50245C108.08 3.87688 110.289 3.00468 112.563 3.07152C114.829 3.05213 117.022 3.91802 118.72 5.50245C120.295 6.98792 121.331 9.00647 121.649 11.2107H103.486C103.801 9.00325 104.841 6.98274 106.425 5.50245H106.406Z" fill="#32C0CC"/>
<path d="M125.594 1.80147H124.662V1.27002H127.087V1.69321H126.154V4.2324H125.65V1.80147H125.594Z" fill="#32C0CC"/>
<path d="M130.034 4.2338V2.33433L129.101 3.91887H128.905L127.972 2.33433V4.2338H127.468V1.28125H127.869L128.979 3.19057L130.09 1.28125H130.5V4.2338H130.034Z" fill="#32C0CC"/>
</svg>
