<svg width="23" height="23" viewBox="0 0 23 23" fill="none" xmlns="http://www.w3.org/2000/svg">
<path fill-rule="evenodd" clip-rule="evenodd" d="M11.8497 4.7392C11.8497 4.30291 11.496 3.94922 11.0597 3.94922C10.6235 3.94922 10.2698 4.3029 10.2698 4.7392V10.2691H4.7399C4.30361 10.2691 3.94992 10.6228 3.94992 11.059C3.94992 11.4953 4.30361 11.849 4.7399 11.849H10.2698V17.3789C10.2698 17.8152 10.6235 18.1689 11.0597 18.1689C11.496 18.1689 11.8497 17.8152 11.8497 17.3789V11.849H17.3796C17.8159 11.849 18.1696 11.4953 18.1696 11.059C18.1696 10.6228 17.8159 10.2691 17.3796 10.2691H11.8497V4.7392Z" fill="#32C0CC"/>
</svg>
